<svg width="140" height="114" viewBox="0 0 140 114" fill="none" xmlns="http://www.w3.org/2000/svg">
<path fill-rule="evenodd" clip-rule="evenodd" d="M99.3967 92.8288C121.085 81.0904 140 67.7278 140 67.7278C140 67.7278 114.905 62.1785 94.6381 81.2674C88.9822 86.5946 84.9565 92.5812 82.0928 98.5159C83.9324 92.5497 86.4615 85.9879 89.9365 78.9956C97.4319 63.9117 122.677 29.9507 122.677 29.9507C122.677 29.9507 95.2697 30.5871 73.3213 69.1436C76.2607 57.6128 81.9575 40.1805 84.2516 31.529C88.6561 14.9178 90.8993 -0.000244141 90.8993 -0.000244141C90.8993 -0.000244141 61.6911 20.5479 59.8924 64.3243C59.8881 64.4239 59.8856 64.5268 59.8813 64.6264C56.3902 55.8192 51.3268 46.8759 44.0867 38.3478C29.7257 21.4353 3.64091 22.761 3.64091 22.761C3.64091 22.761 37.4366 43.0402 47.4118 67.1543C49.1195 71.2826 50.5683 75.5641 51.8001 79.8558C51.3558 78.988 50.8918 78.1133 50.4015 77.2301C32.3902 44.7828 0 47.4987 0 47.4987C0 47.4987 27.0118 63.7177 38.3849 87.0957C41.5244 93.5495 45.2172 103.015 48.7126 114H97.2455C99.4469 111.553 101.905 109.189 104.59 107.152C123.976 92.4502 134.894 89.5309 134.894 89.5309C134.894 89.5309 111.579 82.9887 94.2286 99.9615C89.8096 104.284 86.6429 109.124 84.3853 113.626C87.0353 105.552 91.5905 97.0533 99.3958 92.8288H99.3967Z" fill="url(#paint0_linear_99_1416)"/>
<defs>
<linearGradient id="paint0_linear_99_1416" x1="70" y1="-97.5" x2="70" y2="114" gradientUnits="userSpaceOnUse">
<stop stop-color="#1C207B"/>
<stop offset="0.926144" stop-color="#1C207B" stop-opacity="0"/>
</linearGradient>
</defs>
</svg>
