<svg width="75" height="52" viewBox="0 0 75 52" fill="none" xmlns="http://www.w3.org/2000/svg">
<path fill-rule="evenodd" clip-rule="evenodd" d="M0.48257 26.4994C0.48257 26.4994 7.58619 32.3066 15.8286 37.5455L15.8289 37.5455C18.7953 39.4309 20.3623 42.9214 21.1886 46.1924C20.42 44.3472 19.3015 42.3439 17.6747 40.5116C11.287 33.3165 1.90481 35.2761 1.90481 35.2761C1.90481 35.2761 6.13571 36.7288 13.3884 43.0794C14.3932 43.9592 15.2991 44.9624 16.1016 45.9916L35.2612 47.3079C35.445 46.842 35.6292 46.3833 35.8133 45.9327L53.0003 51.8525C54.1404 51.2174 55.3656 50.6466 56.6339 50.2279C65.788 47.2057 70.2505 47.5166 70.2505 47.5166C70.2505 47.5166 62.3737 42.0557 53.6871 46.1927C51.4748 47.2462 49.6641 48.6553 48.2372 50.055C50.2729 47.3647 53.0766 44.7609 56.5432 44.1805C66.1755 42.5678 74.9806 39.988 74.9806 39.988C74.9806 39.988 66.3094 34.6705 56.258 39.2262C53.453 40.4976 51.1726 42.2267 49.3336 44.086C50.7935 42.0829 52.5884 39.945 54.7928 37.7674C59.5479 33.0696 73.3849 23.5712 73.3849 23.5712C73.3849 23.5712 63.0487 20.2783 49.8505 31.927C51.3165 29.6917 53.3571 26.8607 55.2109 24.2888C56.6335 22.3152 57.9461 20.4942 58.8046 19.2121C62.6008 13.5426 65.3693 8.23027 65.3693 8.23027C65.3693 8.23027 54.8185 11.2991 47.9776 23.1192C46.4676 23.5753 44.8557 24.2394 43.235 25.1987C42.4116 24.1466 42 22.4999 42 22.4999L42 25.9882C41.0789 26.6224 40.1627 27.3592 39.2685 28.2147C39.042 27.5452 38.7928 26.9063 38.5244 26.2968C44.0672 18.2588 55.538 12.3823 55.538 12.3823C55.538 12.3823 45.2764 11.1496 39.1466 17.4606C37.8493 18.7966 36.7015 20.1719 35.6865 21.5692C34.239 19.7389 32.6444 18.3405 31.1455 17.2851C28.4716 6.50332 21.7099 0.997825 21.7099 0.997825C21.7099 0.997825 22.1894 6.96906 23.476 13.6698C23.767 15.185 24.2662 17.3735 24.8072 19.7455C25.5122 22.8364 26.2883 26.2388 26.7673 28.8688C19.152 12.9978 8.34974 12.0023 8.34974 12.0023C8.34974 12.0023 17.3913 26.142 19.9398 32.3215C21.1213 35.186 21.9411 37.8543 22.505 40.268C21.536 37.839 20.1097 35.358 18.0219 33.094C10.5405 24.9814 0.48257 26.4994 0.48257 26.4994ZM32.2149 26.06C32.2166 26.4762 32.2116 26.8974 32.1998 27.3237C32.1993 27.3434 32.1986 27.3635 32.1979 27.3836C32.1972 27.4037 32.1965 27.4238 32.196 27.4436C32.2991 27.2274 32.4047 27.0111 32.5129 26.7948C32.4156 26.5478 32.3162 26.3028 32.2149 26.06Z" fill="url(#paint0_linear_99_1418)"/>
<defs>
<linearGradient id="paint0_linear_99_1418" x1="37" y1="-46.0002" x2="43" y2="45.5" gradientUnits="userSpaceOnUse">
<stop stop-color="#1C207B"/>
<stop offset="1" stop-color="#1C207B" stop-opacity="0"/>
</linearGradient>
</defs>
</svg>
