<svg width="130" height="109" viewBox="0 0 130 109" fill="none" xmlns="http://www.w3.org/2000/svg">
<g style="mix-blend-mode:hard-light" filter="url(#filter0_f_23_864)">
<ellipse cx="70" cy="84" rx="45" ry="10" fill="url(#paint0_linear_23_864)" fill-opacity="0.74"/>
</g>
<g filter="url(#filter1_ii_23_864)">
<path fill-rule="evenodd" clip-rule="evenodd" d="M15.0772 57.7884L12.9634 67.8288L20.8901 78.662L20.9011 78.656C27.9764 89.8148 50.5336 88.5154 71.4546 75.6985C92.4836 62.8153 103.896 43.174 96.9454 31.8283C96.495 31.0932 95.9786 30.4108 95.4008 29.7811L95.401 29.7807L88.5312 20.2687L80.996 24.1176C71.1012 23.6193 58.4172 27.1786 46.2836 34.6121C38.058 39.6514 31.3038 45.7247 26.5443 51.931L15.0772 57.7884Z" fill="url(#paint1_linear_23_864)"/>
</g>
<g filter="url(#filter2_iii_23_864)">
<ellipse cx="50.6618" cy="43.8702" rx="44.6537" ry="24.0918" transform="rotate(-31.4931 50.6618 43.8702)" fill="url(#paint2_radial_23_864)"/>
</g>
<g filter="url(#filter3_dif_23_864)">
<ellipse cx="49.8448" cy="42.5365" rx="31.4466" ry="15.4023" transform="rotate(-31.4931 49.8448 42.5365)" fill="url(#paint3_radial_23_864)"/>
<path d="M75.3803 26.8926C77.1369 29.7599 76.5369 34.1926 73.2287 39.4033C69.9793 44.5212 64.36 49.9477 57.1073 54.391C49.8545 58.8343 42.4677 61.3758 36.4324 61.9461C30.2875 62.5267 26.0659 61.0479 24.3093 58.1805C22.5526 55.3132 23.1526 50.8805 26.4609 45.6698C29.7102 40.5519 35.3296 35.1253 42.5823 30.682C49.835 26.2388 57.2219 23.6973 63.2572 23.127C69.402 22.5464 73.6236 24.0252 75.3803 26.8926Z" stroke="#FB6524" stroke-opacity="0.51" stroke-width="3"/>
</g>
<mask id="mask0_23_864" style="mask-type:alpha" maskUnits="userSpaceOnUse" x="10" y="12" width="89" height="75">
<path fill-rule="evenodd" clip-rule="evenodd" d="M90.6785 26.3529C90.4502 24.2548 89.8142 22.2996 88.7382 20.5432C81.7874 9.19751 59.1053 10.4438 38.0763 23.327C17.0474 36.2101 5.63473 55.8514 12.5855 67.1971C14.0393 69.5701 16.1813 71.3923 18.8525 72.6724C19.0808 74.7705 19.7168 76.7257 20.7928 78.4821C27.7436 89.8278 50.4256 88.5815 71.4546 75.6984C92.4836 62.8152 103.896 43.1739 96.9455 31.8282C95.4916 29.4552 93.3496 27.633 90.6785 26.3529Z" fill="#FFBD14"/>
</mask>
<g mask="url(#mask0_23_864)">
<g style="mix-blend-mode:overlay">
<ellipse cx="65.5" cy="24" rx="40.5" ry="35" fill="url(#paint4_radial_23_864)"/>
</g>
</g>
<defs>
<filter id="filter0_f_23_864" x="10" y="59" width="120" height="50" filterUnits="userSpaceOnUse" color-interpolation-filters="sRGB">
<feFlood flood-opacity="0" result="BackgroundImageFix"/>
<feBlend mode="normal" in="SourceGraphic" in2="BackgroundImageFix" result="shape"/>
<feGaussianBlur stdDeviation="7.5" result="effect1_foregroundBlur_23_864"/>
</filter>
<filter id="filter1_ii_23_864" x="12.9634" y="20.2687" width="87.019" height="69.9702" filterUnits="userSpaceOnUse" color-interpolation-filters="sRGB">
<feFlood flood-opacity="0" result="BackgroundImageFix"/>
<feBlend mode="normal" in="SourceGraphic" in2="BackgroundImageFix" result="shape"/>
<feColorMatrix in="SourceAlpha" type="matrix" values="0 0 0 0 0 0 0 0 0 0 0 0 0 0 0 0 0 0 127 0" result="hardAlpha"/>
<feOffset dx="1" dy="1"/>
<feGaussianBlur stdDeviation="3.5"/>
<feComposite in2="hardAlpha" operator="arithmetic" k2="-1" k3="1"/>
<feColorMatrix type="matrix" values="0 0 0 0 1 0 0 0 0 0.961167 0 0 0 0 0.0291666 0 0 0 1 0"/>
<feBlend mode="normal" in2="shape" result="effect1_innerShadow_23_864"/>
<feColorMatrix in="SourceAlpha" type="matrix" values="0 0 0 0 0 0 0 0 0 0 0 0 0 0 0 0 0 0 127 0" result="hardAlpha"/>
<feOffset dy="4"/>
<feGaussianBlur stdDeviation="2"/>
<feComposite in2="hardAlpha" operator="arithmetic" k2="-1" k3="1"/>
<feColorMatrix type="matrix" values="0 0 0 0 1 0 0 0 0 0.984667 0 0 0 0 0.616667 0 0 0 1 0"/>
<feBlend mode="normal" in2="effect1_innerShadow_23_864" result="effect2_innerShadow_23_864"/>
</filter>
<filter id="filter2_iii_23_864" x="10.5486" y="11.7865" width="81.2266" height="67.1674" filterUnits="userSpaceOnUse" color-interpolation-filters="sRGB">
<feFlood flood-opacity="0" result="BackgroundImageFix"/>
<feBlend mode="normal" in="SourceGraphic" in2="BackgroundImageFix" result="shape"/>
<feColorMatrix in="SourceAlpha" type="matrix" values="0 0 0 0 0 0 0 0 0 0 0 0 0 0 0 0 0 0 127 0" result="hardAlpha"/>
<feOffset dx="1" dy="1"/>
<feGaussianBlur stdDeviation="3.5"/>
<feComposite in2="hardAlpha" operator="arithmetic" k2="-1" k3="1"/>
<feColorMatrix type="matrix" values="0 0 0 0 1 0 0 0 0 0.961167 0 0 0 0 0.0291666 0 0 0 1 0"/>
<feBlend mode="normal" in2="shape" result="effect1_innerShadow_23_864"/>
<feColorMatrix in="SourceAlpha" type="matrix" values="0 0 0 0 0 0 0 0 0 0 0 0 0 0 0 0 0 0 127 0" result="hardAlpha"/>
<feOffset dy="4"/>
<feGaussianBlur stdDeviation="2"/>
<feComposite in2="hardAlpha" operator="arithmetic" k2="-1" k3="1"/>
<feColorMatrix type="matrix" values="0 0 0 0 1 0 0 0 0 0.984667 0 0 0 0 0.616667 0 0 0 1 0"/>
<feBlend mode="normal" in2="effect1_innerShadow_23_864" result="effect2_innerShadow_23_864"/>
<feColorMatrix in="SourceAlpha" type="matrix" values="0 0 0 0 0 0 0 0 0 0 0 0 0 0 0 0 0 0 127 0" result="hardAlpha"/>
<feOffset dy="-1"/>
<feGaussianBlur stdDeviation="0.5"/>
<feComposite in2="hardAlpha" operator="arithmetic" k2="-1" k3="1"/>
<feColorMatrix type="matrix" values="0 0 0 0 1 0 0 0 0 0.984667 0 0 0 0 0.616667 0 0 0 0.54 0"/>
<feBlend mode="normal" in2="effect2_innerShadow_23_864" result="effect3_innerShadow_23_864"/>
</filter>
<filter id="filter3_dif_23_864" x="13.8418" y="13.5035" width="68.0061" height="54.066" filterUnits="userSpaceOnUse" color-interpolation-filters="sRGB">
<feFlood flood-opacity="0" result="BackgroundImageFix"/>
<feColorMatrix in="SourceAlpha" type="matrix" values="0 0 0 0 0 0 0 0 0 0 0 0 0 0 0 0 0 0 127 0" result="hardAlpha"/>
<feOffset dx="-2" dy="-2"/>
<feGaussianBlur stdDeviation="3"/>
<feComposite in2="hardAlpha" operator="out"/>
<feColorMatrix type="matrix" values="0 0 0 0 1 0 0 0 0 0.844667 0 0 0 0 0.0291666 0 0 0 0.56 0"/>
<feBlend mode="normal" in2="BackgroundImageFix" result="effect1_dropShadow_23_864"/>
<feBlend mode="normal" in="SourceGraphic" in2="effect1_dropShadow_23_864" result="shape"/>
<feColorMatrix in="SourceAlpha" type="matrix" values="0 0 0 0 0 0 0 0 0 0 0 0 0 0 0 0 0 0 127 0" result="hardAlpha"/>
<feOffset dx="2" dy="2"/>
<feGaussianBlur stdDeviation="1.5"/>
<feComposite in2="hardAlpha" operator="arithmetic" k2="-1" k3="1"/>
<feColorMatrix type="matrix" values="0 0 0 0 0.509804 0 0 0 0 0.270588 0 0 0 0 0.121569 0 0 0 0.5 0"/>
<feBlend mode="normal" in2="shape" result="effect2_innerShadow_23_864"/>
<feGaussianBlur stdDeviation="0.25" result="effect3_foregroundBlur_23_864"/>
</filter>
<linearGradient id="paint0_linear_23_864" x1="40" y1="86.4138" x2="118.406" y2="99.2842" gradientUnits="userSpaceOnUse">
<stop stop-color="#1D217D"/>
<stop offset="1" stop-color="#1D217D" stop-opacity="0"/>
</linearGradient>
<linearGradient id="paint1_linear_23_864" x1="31.459" y1="95.0439" x2="101.881" y2="41.5573" gradientUnits="userSpaceOnUse">
<stop offset="0.0327074" stop-color="#FE9E1A"/>
<stop offset="0.111371" stop-color="#FB6524"/>
<stop offset="0.256388" stop-color="#FC7621"/>
<stop offset="0.450255" stop-color="#FFBD14"/>
<stop offset="0.734073" stop-color="#FB6524"/>
<stop offset="0.914245" stop-color="#FC7222"/>
<stop offset="0.982006" stop-color="#FE9D1A"/>
</linearGradient>
<radialGradient id="paint2_radial_23_864" cx="0" cy="0" r="1" gradientUnits="userSpaceOnUse" gradientTransform="translate(32.8004 28.3031) rotate(42.5039) scale(68.0241 77.502)">
<stop stop-color="#FFBD14"/>
<stop offset="1" stop-color="#FB6524"/>
</radialGradient>
<radialGradient id="paint3_radial_23_864" cx="0" cy="0" r="1" gradientUnits="userSpaceOnUse" gradientTransform="translate(39.8739 30.1396) rotate(63.5014) scale(36.0996 62.5514)">
<stop stop-color="#FFD707"/>
<stop offset="1" stop-color="#FB6524"/>
</radialGradient>
<radialGradient id="paint4_radial_23_864" cx="0" cy="0" r="1" gradientUnits="userSpaceOnUse" gradientTransform="translate(65.5 24) rotate(90) scale(35 40.5)">
<stop stop-color="#FFFB9D"/>
<stop offset="1" stop-color="#FFFB9D" stop-opacity="0"/>
</radialGradient>
</defs>
</svg>
