<svg width="37" height="47" viewBox="0 0 37 47" fill="none" xmlns="http://www.w3.org/2000/svg">
<path fill-rule="evenodd" clip-rule="evenodd" d="M12.1973 15.1946C12.0922 13.5337 11.7542 12.0181 11.5365 10.4874C11.1406 7.69512 10.6063 4.92439 10.3348 2.11275C10.2951 1.70586 10.2512 1.30005 10.3413 0.89208C10.4464 0.415221 10.6664 0.0341648 11.2006 0.00187192C11.6856 -0.0282681 11.9388 0.309731 12.0815 0.714469C12.2167 1.09875 12.3078 1.49919 12.4023 1.89639C13.4193 6.1569 13.9794 10.496 14.5931 14.8265C14.6896 15.5143 14.7701 16.2054 14.8656 16.8932C14.8935 17.0945 14.9192 17.3033 14.9954 17.4885C15.107 17.7608 15.314 17.9933 15.5994 18.0579C15.9899 18.1483 16.035 17.7651 16.1584 17.5369C17.2988 15.4131 18.4039 13.271 19.568 11.1601C20.6526 9.19243 21.7759 7.2441 23.1921 5.48844C23.5505 5.04387 23.9174 4.60038 24.4249 4.3119C24.6791 4.16766 24.9581 4.02665 25.2209 4.22794C25.5074 4.44645 25.3872 4.74785 25.2628 5.00727C25.1212 5.30222 24.9602 5.58747 24.7939 5.86842C22.543 9.66929 20.717 13.6919 18.7 17.6144C18.6474 17.7188 18.6292 17.8416 18.5723 18.0289C19.0637 18.2172 19.5326 18.0741 19.9885 18.0138C25.2499 17.313 30.5252 16.8771 35.8381 17.1656C36.2189 17.186 36.661 17.0159 37 17.4605C36.4925 18.059 35.7673 18.214 35.0806 18.4067C31.7429 19.3453 28.3537 20.0504 24.9313 20.5929C23.3262 20.8491 21.7212 21.1021 20.0508 21.3669C20.2085 21.9062 20.6441 22.0924 20.9767 22.3507C23.7479 24.5057 26.5298 26.6468 28.9771 29.185C29.565 29.7942 30.1637 30.3981 30.6271 31.1947C30.0918 31.4605 29.7549 31.1495 29.4266 30.9977C27.4643 30.0859 25.6018 28.988 23.765 27.847C21.5442 26.4702 19.4264 24.9406 17.2785 23.4562C17.0435 23.2937 16.8193 23.1139 16.5725 22.9718C16.1477 22.7264 15.873 22.8448 15.8172 23.3313C15.7754 23.692 15.8086 24.0666 15.8526 24.4304C16.2903 28.0418 16.7742 31.6478 17.1733 35.2636C17.5842 39.002 17.9919 42.7437 17.9833 46.5123C17.9833 46.6748 17.9608 46.8363 17.9501 46.9967C17.5413 47.0354 17.6025 46.7276 17.5617 46.5123C16.3783 40.2905 15.2368 34.0612 14.298 27.7953C14.2519 27.4842 14.2444 27.1505 13.9847 26.8405C13.6114 27.1355 13.4762 27.5768 13.267 27.9568C11.6319 30.9277 10.058 33.9331 8.17192 36.7566C7.53571 37.7081 6.88126 38.6468 6.10986 39.4961C5.72899 39.9148 5.33203 40.3142 4.74517 40.3895C4.45979 40.0806 4.7441 39.9051 4.83744 39.7103C7.45739 34.2593 10.3466 28.9482 13.0986 23.566C13.1168 23.5294 13.1318 23.4917 13.149 23.4541C13.3013 23.1279 13.5921 22.7716 13.3056 22.4411C13.0782 22.1796 12.6866 22.3453 12.3701 22.3809C9.0431 22.7522 5.70646 22.8857 2.36017 22.8093C1.99325 22.8017 1.62311 22.8017 1.26263 22.7479C0.736919 22.6704 0.125382 22.5994 0.0148758 21.96C-0.0988486 21.3044 0.461191 21.0472 0.954712 20.8502C1.48149 20.6392 2.02973 20.4691 2.58119 20.3303C4.56385 19.8351 6.59373 19.6306 8.6118 19.3572C9.37032 19.2538 10.131 19.1516 10.8917 19.0493C10.9013 18.5789 10.5322 18.4745 10.2984 18.285C8.0464 16.4605 5.82233 14.6037 3.68624 12.6413C3.14552 12.144 2.60372 11.6445 2.17349 11.0439C1.85056 10.595 1.60058 10.0859 1.98038 9.57887C2.36232 9.06757 2.93953 9.17952 3.44378 9.35498C4.33533 9.66391 5.12818 10.1752 5.90602 10.7016C7.66445 11.891 9.33384 13.2021 11.0193 14.4917C11.3337 14.7317 11.6019 15.0558 12.1963 15.1946" fill="white"/>
</svg>
