<svg width="72" height="60" viewBox="0 0 72 60" fill="none" xmlns="http://www.w3.org/2000/svg">
<path fill-rule="evenodd" clip-rule="evenodd" d="M17.8553 44.3015C8.57826 36.3519 0.812146 27.9005 0.812146 27.9005C0.812146 27.9005 13.5361 27.8053 21.361 39.1784C23.5447 42.3523 24.8707 45.6776 25.6397 48.8572C25.3697 45.7684 24.8279 42.3188 23.8731 38.562C21.8136 30.4579 13.126 11.3445 13.126 11.3445C13.126 11.3445 26.3258 14.4937 32.94 35.4979C32.7164 29.5919 31.7718 20.5334 31.5611 16.093C31.1566 7.56729 31.6223 0.0880538 31.6223 0.0880538C31.6223 0.0880538 43.6232 13.0965 39.9413 34.5484C39.933 34.5972 39.9236 34.6474 39.9153 34.6962C42.521 30.7797 45.902 26.9599 50.2933 23.5675C59.0035 16.84 71.4917 20.187 71.4917 20.187C71.4917 20.187 53.0243 26.536 45.6881 37.2164C44.4322 39.0448 43.2856 40.9745 42.2431 42.9317C42.5484 42.5562 42.864 42.1793 43.1931 41.8011C55.2857 27.9055 70.6814 32.5812 70.6814 32.5812C70.6814 32.5812 55.9199 37.6609 47.9837 47.8388C45.7929 50.6485 43.021 54.8641 40.1868 59.8379L16.6949 54.8087C15.8838 53.3919 14.94 51.989 13.8519 50.7212C5.99756 41.5706 1.01619 39.021 1.01619 39.021C1.01619 39.021 12.9818 38.259 19.6151 48.3019C21.3046 50.8595 22.3341 53.5386 22.9586 55.9599C22.5156 51.7628 21.1945 47.1625 17.8558 44.3016L17.8553 44.3015Z" fill="url(#paint0_linear_99_1417)"/>
<defs>
<linearGradient id="paint0_linear_99_1417" x1="67.6974" y1="-48.9959" x2="29.8828" y2="57.632" gradientUnits="userSpaceOnUse">
<stop stop-color="#1C207B"/>
<stop offset="1" stop-color="#1C207B" stop-opacity="0"/>
</linearGradient>
</defs>
</svg>
