<svg width="113" height="117" viewBox="0 0 113 117" fill="none" xmlns="http://www.w3.org/2000/svg">
<path d="M1.29729 114.242C11.8223 118.27 24.4416 118.129 34.2741 112.137C45.1464 105.509 49.6522 92.7635 52.1926 80.9647C52.2304 80.7934 52.2652 80.6225 52.2999 80.4516C54.3158 81.3802 56.4332 82.0447 58.5858 82.3599C64.2884 83.1913 69.3895 80.8924 73.233 76.7266C76.9878 72.6564 79.415 67.3604 81.0642 62.1277C82.5909 57.2775 83.4484 52.2815 83.5041 47.2113C87.0481 46.6615 90.4294 45.2679 93.4436 43.1769C102.982 36.5606 106.32 24.5244 107.822 13.5525C108.234 15.6189 108.627 17.6892 108.975 19.7641C109.312 21.7719 112.468 21.4423 112.129 19.4236C111.17 13.7179 109.884 8.05701 108.736 2.38604C108.71 2.25831 108.673 2.14138 108.627 2.03492C108.332 0.586115 105.841 0.420558 105.488 2.19398C104.58 6.75124 102.833 11.173 100.288 15.076C98.1091 18.4189 95.0653 22.6543 90.8965 23.5152C88.9102 23.9255 89.2219 27.0838 91.2253 26.6701C96.2385 25.6353 99.8051 21.485 102.529 17.4004C103.293 16.256 103.994 15.0754 104.635 13.8695C103.684 20.8163 101.975 27.7079 98.2442 33.5507C94.809 38.9317 89.4291 42.8622 83.4313 43.9778C83.1409 38.7635 82.0166 33.4259 79.8456 28.7044C77.9057 24.4897 74.2988 19.7783 69.3413 19.1944C63.625 18.5221 59.7978 23.6382 59.4752 28.8964C59.1655 33.9256 61.5639 38.6464 65.2482 41.9468C68.8063 45.1367 73.5823 47.0329 78.3306 47.4101C78.9997 47.4637 79.6656 47.4857 80.3268 47.478C80.2221 54.4289 78.5429 61.3587 75.4864 67.6254C73.4814 71.7343 70.6251 75.9973 66.43 78.1171C62.0338 80.3398 57.135 79.2497 52.9287 77.171C53.7603 72.3386 54.1598 67.4223 53.7303 62.5367C53.2809 57.4302 51.9354 49.2382 45.544 48.5623C39.9687 47.9751 36.5441 54.0538 36.5679 58.8942C36.5975 64.5378 39.7057 70.1293 43.4944 74.111C45.2081 75.9112 47.2154 77.5507 49.4103 78.8978C47.6321 88.4667 44.4919 98.3276 37.6402 105.405C30.4911 112.79 19.3517 115.007 9.51875 113.269C7.13871 112.847 4.82631 112.19 2.57051 111.327C0.674419 110.602 -0.614112 113.508 1.2987 114.241L1.29729 114.242ZM74.3405 43.4359C70.4353 42.2146 66.8561 39.8612 64.6177 36.3856C62.3827 32.9127 61.5788 27.7332 64.3422 24.2746C67.1508 20.7603 71.5095 22.6219 73.9898 25.4108C77.15 28.9652 78.6675 33.8305 79.5477 38.4287C79.9186 40.3691 80.1548 42.3305 80.2628 44.2977C78.3133 44.3283 76.3261 44.0573 74.3423 43.4373L74.3405 43.4359ZM41.5772 65.8692C39.7502 61.959 38.4843 56.6829 41.8404 53.1699C43.2165 51.7302 45.1732 51.2037 46.8865 52.3894C48.9842 53.8425 49.6571 56.8631 50.0839 59.2178C51.059 64.605 50.8363 70.088 49.9947 75.4803C46.4178 73.0884 43.3942 69.7597 41.5772 65.8692Z" fill="white"/>
</svg>
