
<svg width="100" height="23" viewBox="0 0 100 23" fill="none" xmlns="http://www.w3.org/2000/svg">
<path d="M13.4676 8.10158C13.4676 11.2397 9.14648 11.3915 9.14648 11.3915C9.14648 11.3915 13.4676 11.8723 13.4676 14.6498V14.8934H13.77V7.88647H13.4676V8.09842V8.10158Z" fill="#FB3F0F"/>
<path d="M12.9665 0.484212C12.4721 0.544317 11.9996 0.57595 11.5556 0.57595H0V0.879634H0.393689C0.919658 0.879634 1.37004 1.06627 1.74483 1.44271C2.11962 1.81916 2.31489 2.27152 2.33694 2.7998V19.6764C2.31804 20.2047 2.11962 20.6571 1.74483 21.0335C1.37004 21.4099 0.919658 21.5966 0.393689 21.5966H0V21.9003H9.22178V21.5966H8.82809C8.30212 21.5966 7.85174 21.4099 7.47695 21.0335C7.10215 20.6571 6.90688 20.2047 6.88484 19.6764V1.88559H11.9808C12.891 1.88559 13.6122 2.15447 14.1508 2.69225C14.6862 3.23002 14.9539 3.9576 14.9539 4.87181V5.1755H15.2562V0.0286865C15.0736 0.110934 14.7712 0.190019 14.346 0.272266C13.9208 0.354514 13.461 0.424108 12.9665 0.484212Z" fill="#FB3F0F"/>
<path d="M24.8714 0.575562H18.0779V0.879245H18.4716C18.9975 0.879245 19.4479 1.06588 19.8227 1.44233C20.1975 1.81877 20.3928 2.27113 20.4148 2.79941V19.676C20.3959 20.2043 20.1975 20.6567 19.8227 21.0331C19.4479 21.4095 18.9975 21.5962 18.4716 21.5962H18.0779V21.8999H27.2997V21.5962H26.906C26.38 21.5962 25.9296 21.4095 25.5548 21.0331C25.18 20.6567 24.9848 20.2043 24.9627 19.676V2.79941C24.9816 2.27113 25.18 1.81877 25.5548 1.44233C25.9296 1.06588 26.38 0.879245 26.906 0.879245H27.2997V0.575562H24.8745H24.8714Z" fill="#FB3F0F"/>
<path d="M51.35 0.575633H44.6762V0.879316H45.2525C45.7785 0.879316 46.2194 1.05647 46.5722 1.41076C46.9249 1.76506 47.1139 2.20793 47.1328 2.73622V14.7792L31.8167 0.116943H31.5144C31.7569 1.51832 31.8797 2.78683 31.8797 3.92565V19.7362C31.8797 20.2455 31.697 20.682 31.3348 21.0458C30.9727 21.4096 30.5349 21.5931 30.031 21.5931H29.4546V21.8968H38.6449V21.5931H38.0685C37.5614 21.5931 37.1268 21.4096 36.7646 21.0458C36.3993 20.6789 36.2197 20.2423 36.2197 19.7362H36.2166L36.1945 7.66475L51.5358 22.327H51.8098C51.6902 21.6785 51.5988 21.0522 51.5358 20.4543C51.476 19.8564 51.4445 19.1794 51.4445 18.4297V2.73938C51.4634 2.2111 51.6555 1.76822 52.0209 1.41393C52.3862 1.05963 52.8208 0.88248 53.3248 0.88248H53.8696V0.578796H51.3532L51.35 0.575633Z" fill="#FB3F0F"/>
<path d="M67.3333 21.9001H72.8827L73.9756 15.7758H73.6732C72.0827 21.3876 67.3333 21.9001 67.3333 21.9001Z" fill="#FB3F0F"/>
<path d="M81.9536 17.1266C81.3867 15.4722 81.1032 13.5109 81.1032 11.2364C81.1032 8.96196 81.3867 7.00066 81.9536 5.34622C82.5205 3.69177 83.3236 2.41377 84.3661 1.50588C85.4086 0.597993 86.6369 0.14563 88.0511 0.14563C85.6259 0.14563 83.5158 0.597993 81.7268 1.50272C79.9379 2.40744 78.5584 3.68545 77.5884 5.33989C76.6183 6.99434 76.1333 8.95879 76.1333 11.2333C76.1333 13.5077 76.6183 15.4975 77.5884 17.1424C78.5584 18.7874 79.9379 20.0622 81.7268 20.967C83.5158 21.8717 85.6259 22.3241 88.0511 22.3241C86.6369 22.3241 85.4086 21.8717 84.3661 20.9638C83.3236 20.0559 82.5205 18.7779 81.9536 17.1235V17.1266Z" fill="#FB3F0F"/>
<path d="M98.529 5.32724C97.5463 3.68228 96.1637 2.40744 94.3748 1.50272C92.5858 0.597993 90.4788 0.14563 88.0505 0.14563C89.4867 0.14563 90.7182 0.597993 91.7512 1.50588C92.7811 2.41377 93.5811 3.69177 94.148 5.34622C94.7149 6.9975 94.9984 8.96195 94.9984 11.2364C94.9984 13.5109 94.7149 15.4722 94.148 17.1266C93.5811 18.7779 92.7843 20.0591 91.7512 20.967C90.7213 21.8749 89.4867 22.3272 88.0505 22.3272C90.4788 22.3272 92.5858 21.8749 94.3748 20.9701C96.1637 20.0654 97.5495 18.7874 98.529 17.133C99.5085 15.4785 99.9998 13.5141 99.9998 11.2396C99.9998 8.96512 99.5085 6.97536 98.529 5.3304V5.32724Z" fill="#FB3F0F"/>
<path d="M56.8675 4.96333C56.8675 1.02177 62.1965 0.547264 62.1965 0.547264H60.2627C59.8375 0.547264 59.3714 0.51563 58.8675 0.455526C58.3604 0.395422 57.9006 0.322664 57.488 0.24358C57.0722 0.161332 56.7636 0.0822477 56.562 0V5.32712H56.8644V4.96017L56.8675 4.96333Z" fill="#FB3F0F"/>
<path d="M73.1255 0.14856C73.0027 0.208664 72.7664 0.268768 72.4137 0.332035C72.061 0.392139 71.6547 0.442753 71.2011 0.483877C70.7445 0.525001 70.3161 0.543981 69.913 0.543981H67.9603L63.4754 8.54732L56.1433 21.6279V21.9031H61.1794L73.1255 0.423773V0.14856Z" fill="#FB3F0F"/>
</svg>
