<svg width="58" height="46" viewBox="0 0 58 46" fill="none" xmlns="http://www.w3.org/2000/svg">
<path fill-rule="evenodd" clip-rule="evenodd" d="M56.7592 19.8957C56.5787 21.4747 56.1263 23.0007 54.7755 24.0522L54.7762 24.0569C54.0447 23.6121 53.93 22.9223 53.8308 22.3254C53.8276 22.3064 53.8245 22.2875 53.8214 22.2688C52.8563 16.4818 53.0706 10.7555 54.8234 5.12617C54.96 4.67992 55.208 4.25933 55.4544 3.8585C55.6546 3.53341 55.9681 3.28972 56.3835 3.312C56.9854 3.34277 57.1245 3.83653 57.2465 4.28439C57.3441 4.64363 57.3832 5.03193 57.384 5.40943C57.3805 10.2486 57.3089 15.0891 56.7592 19.8957ZM33.1825 25.3366C33.8519 22.7982 33.7683 20.6313 33.1647 18.5178C31.633 13.1401 29.7844 7.86538 27.7332 2.66274L27.6953 2.56674C27.2246 1.37355 26.7066 0.060317 25.0304 0.24168C23.8548 0.36799 23.4606 1.50438 23.8698 3.85925C24.9334 9.98096 27.2253 15.6876 29.9257 21.2397C30.6239 22.68 31.7159 23.8757 33.1825 25.3366ZM8.76023 42.3028L8.76171 42.3037C10.044 43.0436 11.3272 43.7839 12.6154 44.514C13.3619 44.9377 14.1434 45.307 15.0234 45.2948C16.3576 45.2742 17.0402 44.1735 16.52 42.9282C16.2396 42.256 15.699 41.8123 15.1599 41.3698C15.1347 41.3491 15.1095 41.3284 15.0843 41.3077C15.0633 41.2904 15.0422 41.2731 15.0212 41.2557C11.7855 38.5855 8.2293 36.4135 4.4998 34.5232C2.52613 33.5228 0.0902732 33.4214 0.0446127 34.2304C-0.0476712 35.9022 1.05861 37.0663 2.30292 37.9569C3.47706 38.7983 4.70764 39.5612 5.93822 40.3242C6.48049 40.6604 7.02277 40.9966 7.56021 41.3395C7.53984 41.3735 7.51929 41.4063 7.49897 41.4388L7.49893 41.4389C7.47722 41.4735 7.45577 41.5078 7.43504 41.5427L7.43703 41.5399C7.87812 41.7939 8.31913 42.0483 8.76023 42.3028Z" fill="white"/>
</svg>
