<svg width="77" height="102" viewBox="0 0 77 102" fill="none" xmlns="http://www.w3.org/2000/svg">
<path d="M41.3602 2.29929C50.6096 34.2085 26.499 48.0947 15.1137 48.1089C25.2294 38.2743 31.325 30.3741 30.7609 21.6055C28.1715 30.2028 20.8567 39.683 10.7106 42.6773C9.19923 17.7739 31.728 2.66213 41.3602 2.29929Z" fill="url(#paint0_linear_149_2770)"/>
<path d="M75.9821 81.3896C64.9025 104.016 44.2892 99.5152 37.8916 93.7177C48.5841 93.3559 56.0339 92.0301 60.1885 86.8208C54.3512 90.3259 45.4115 91.9169 38.19 88.4239C50.0403 73.6756 70.3908 76.6816 75.9821 81.3896Z" fill="url(#paint1_linear_149_2770)"/>
<defs>
<linearGradient id="paint0_linear_149_2770" x1="5.06683" y1="50.1765" x2="8.99653" y2="-12.0454" gradientUnits="userSpaceOnUse">
<stop stop-color="#2F3293"/>
<stop offset="1" stop-color="#FB3F0F"/>
</linearGradient>
<linearGradient id="paint1_linear_149_2770" x1="31.1984" y1="89.7551" x2="65.1318" y2="56.8356" gradientUnits="userSpaceOnUse">
<stop stop-color="#2F3293"/>
<stop offset="1" stop-color="#FB3F0F"/>
</linearGradient>
</defs>
</svg>
