<svg width="179" height="130" viewBox="0 0 179 130" fill="none" xmlns="http://www.w3.org/2000/svg">
<path d="M0.264954 3.22466C-0.727585 1.15432 1.24515 -0.650267 3.25488 0.227308C10.0855 3.21539 16.799 6.46613 23.38 9.97025C25.8644 11.2928 23.6605 15.075 21.1761 13.7525C17.2121 11.642 13.2019 9.62726 9.14539 7.70215C20.276 20.3528 35.4631 28.9401 51.581 33.6833C58.3562 35.6764 65.3317 37.0515 72.3843 37.8147C74.0888 36.5571 75.8366 35.3674 77.6213 34.255C86.625 28.6404 96.7662 24.6326 107.166 22.5622C109.663 22.0647 112.184 21.6847 114.718 21.4158C117.502 21.1192 120.448 20.7947 123.226 21.2613C128.601 22.1667 131.083 27.6608 128.74 32.4813C126.274 37.5552 119.228 38.5347 114.29 39.6719C109.25 40.8306 104.133 41.6526 98.9886 42.1872C90.5767 43.0617 82.1062 43.074 73.6943 42.2922C71.216 44.2173 68.8672 46.3062 66.688 48.5681C61.0471 54.4238 56.0197 61.911 54.6542 70.0811C54.3151 72.1082 54.3829 74.469 54.9933 76.5331C55.5111 78.2914 56.6146 80.1392 57.8815 81.4927C59.5337 83.254 60.9978 84.2614 63.2665 85.4757C65.6122 86.7303 67.7113 87.5059 70.3838 88.3001C74.6098 89.5546 78.9529 90.3889 83.3546 90.9328C88.0429 86.3842 93.5974 82.6854 99.3277 79.6603C108.618 74.7563 118.679 71.3326 128.857 68.8296C134.572 67.4236 140.352 66.2587 146.239 65.9033C152.952 65.4985 159.758 66.2123 166.395 67.2599C172.131 68.1714 178.509 71.2708 178.977 77.868C179.455 84.5889 172.285 87.3761 167.07 89.0479C157.286 92.1812 146.936 92.9722 136.773 94.0476C131.243 94.6316 125.704 95.1445 120.156 95.5153C108.526 96.294 96.686 96.6463 85.0468 95.4288C83.4224 97.1314 81.9274 98.9577 80.6266 100.923C78.6354 103.93 76.3637 107.842 76.9216 111.472C77.911 117.894 86.6281 120.715 92.0316 122.522C95.2157 123.588 98.4522 124.488 101.609 125.634C104.232 126.589 103.101 130.822 100.447 129.858C93.243 127.238 85.2379 125.789 78.8882 121.249C75.9105 119.123 73.3151 116.234 72.6863 112.501C71.9096 107.91 73.8515 103.528 76.2219 99.7024C77.2945 97.9657 78.4936 96.3249 79.7913 94.7675C78.9652 94.6439 78.1391 94.5142 77.3161 94.372C67.0578 92.6138 53.1654 88.5009 50.5392 76.7741C48.9641 69.7381 51.8338 62.3961 55.2984 56.3891C58.5319 50.7806 62.8103 45.8551 67.6805 41.597C67.4709 41.5692 67.2613 41.5413 67.0547 41.5104C46.3502 38.5378 25.9014 30.2256 10.6434 15.5972C9.92833 14.9113 9.23169 14.2098 8.54431 13.496C9.53685 17.4235 10.1842 21.4405 10.4924 25.5194C10.7051 28.3314 6.33421 28.3159 6.1246 25.5194C5.55437 17.9704 3.6926 10.5203 0.471466 3.66345C0.428314 3.5862 0.394394 3.50895 0.363571 3.4317C0.329666 3.36062 0.298859 3.29264 0.264954 3.22157V3.22466ZM109.102 91.6806C119.604 91.3623 130.053 90.3828 140.493 89.2672C146.584 88.6152 152.681 87.9849 158.683 86.7179C161.867 86.0443 165.02 85.1945 168.081 84.0821C170.325 83.2694 173.389 82.1756 174.375 79.7622C175.248 77.627 173.811 75.2291 172.171 73.9158C170.02 72.1916 166.962 71.7034 164.311 71.3511C158.011 70.5137 151.723 69.8772 145.364 70.3407C135.346 71.0699 125.195 73.9468 115.751 77.2871C106.645 80.5069 97.5768 84.7372 90.028 90.8555C89.7691 91.0657 89.5163 91.282 89.2605 91.4952C95.8754 91.9525 102.558 91.8783 109.099 91.6806H109.102ZM109.709 36.1801C112.049 35.7135 114.373 35.1789 116.682 34.5702C119.089 33.9336 122.178 33.4485 124.021 31.6501C125.1 30.5995 125.664 28.7763 125.069 27.3302C124.113 25.0096 120.794 25.3896 118.79 25.4823C109.37 25.9242 99.9626 28.3406 91.3072 32.0487C87.1521 33.8286 83.108 35.9329 79.2765 38.3709C89.4763 38.8993 99.7469 38.167 109.709 36.1832V36.1801Z" fill="white"/>
</svg>
