<svg width="76" height="78" viewBox="0 0 76 78" fill="none" xmlns="http://www.w3.org/2000/svg">
<path fill-rule="evenodd" clip-rule="evenodd" d="M26.1459 30.6911C25.5169 28.9075 24.4243 29.2044 23.3184 29.4526C17.5928 30.731 11.8584 31.9451 6.05114 32.8158C2.91684 33.2855 2.73806 33.917 4.7003 36.3696C7.15918 39.4515 10.3177 41.6516 13.7699 43.444C16.5974 44.913 19.4977 46.2423 22.3274 47.7024C25.0158 49.0894 25.3226 49.7895 24.8304 52.7274C24.7465 53.2237 24.6516 53.7222 24.5435 54.214C23.3361 59.6312 22.1133 65.0439 20.9192 70.4654C20.6499 71.6862 20.3872 72.9247 20.7205 74.1389C21.12 74.3294 21.4401 74.2896 21.7557 74.1455C27.3003 71.6175 32.4918 68.6043 36.328 63.6746C37.5662 62.0838 38.8155 60.4975 40.1576 58.9931C41.5856 57.3956 42.5215 57.2605 44.3293 58.4613C48.2979 61.1001 52.7764 62.5314 57.213 64.0513C58.4667 64.4789 59.8374 64.5564 61.1573 64.7869C62.3073 64.9863 62.6384 64.3969 62.5898 63.3512C62.5192 61.8202 62.1108 60.369 61.6451 58.9244C60.5327 55.4548 58.7426 52.3108 57.0187 49.1359C56.4581 48.1012 55.8202 47.0909 55.573 45.9277C55.1911 44.1264 56.1645 43.0098 58.0385 43.0851C58.4777 43.1028 58.8728 43.0607 59.2414 42.8436C63.2917 40.4618 67.4105 38.1576 70.6375 34.6437C71.7013 33.4872 72.9197 32.1733 72.1185 30.3986C71.2687 28.5131 69.4036 28.604 67.7504 28.6594C65.1546 28.7436 62.5633 28.9806 59.9764 29.2088C56.1248 29.55 52.2798 29.7007 48.4414 29.056C47.4128 28.8832 46.5608 28.6261 46.1767 27.4253C44.5301 22.2962 42.2809 17.3997 40.2304 12.4279C39.204 9.93982 38.0562 7.50045 36.5531 5.25827C36.0123 4.45401 35.5841 3.48579 34.2752 3.10249C30.2227 11.7655 28.0707 20.9558 26.1481 30.6933M17.584 72.6633C18.1998 66.7211 19.2019 60.8387 20.491 55.005C21.3849 50.9616 22.0978 51.6661 17.882 49.661C14.6991 48.1433 11.5141 46.6389 8.58506 44.6471C5.77965 42.7417 3.32298 40.4818 1.41592 37.6503C0.848652 36.8083 0.323327 35.942 0.109224 34.9384C-0.347677 32.7848 0.645586 30.9835 2.77558 30.1084C4.34714 29.4636 6.02686 29.2576 7.69112 29.1114C11.7878 28.7502 15.8469 28.1387 19.9149 27.5494C20.4093 27.4785 20.9214 27.5028 21.4158 27.4231C22.6408 27.2215 24.2609 28.0102 25.0092 27.0309C25.6802 26.1513 25.4904 24.6159 25.7067 23.3752C26.9141 16.4714 28.8255 9.77143 31.4279 3.26866C31.6773 2.64608 31.962 2.0235 32.3306 1.4696C33.4078 -0.15 34.8094 -0.433596 36.4295 0.632105C37.5707 1.38319 38.4072 2.44668 39.193 3.54118C40.8197 5.80552 42.0734 8.28698 43.1771 10.8327C45.1194 15.3082 47.0044 19.8059 48.8938 24.3057C49.7944 26.4526 49.7723 26.4416 52.1716 26.4682C55.8732 26.508 59.5217 25.8677 63.2012 25.6307C65.2076 25.5022 67.2228 25.3626 69.2292 25.4091C71.2952 25.4578 73.2332 26.0804 74.584 27.7798C76.2726 29.9023 76.4116 32.2243 75.1998 34.6371C74.0852 36.8659 72.4055 38.6207 70.5028 40.1694C67.9579 42.241 65.2319 44.0533 62.4662 45.8059C60.6673 46.9491 60.6452 46.9735 61.6871 48.9254C63.2343 51.8256 64.6646 54.7679 65.6447 57.9163C66.3267 60.1031 66.7659 62.3165 66.5651 64.6229C66.2958 67.7292 65.2716 68.6686 62.2058 68.354C56.0431 67.7225 50.269 65.7218 44.7221 63.0631C42.8394 62.1592 42.8327 61.6296 41.3097 63.7965C37.1734 69.6789 31.6773 73.8088 25.1306 76.6049C23.9784 77.0967 22.802 77.6041 21.5858 77.8722C19.2549 78.3906 17.8643 77.3249 17.5928 74.9343C17.509 74.1876 17.5796 73.4233 17.5796 72.6677" fill="white"/>
</svg>
