<svg width="75" height="73" viewBox="0 0 75 73" fill="none" xmlns="http://www.w3.org/2000/svg">
<path d="M19.375 27.3883C0.610304 24.2904 -0.611598 8.40948 2.19101 2.52515C4.77423 10.1774 7.35042 15.2758 12.0189 17.1485C8.21724 13.6892 5.1258 7.57113 6.08326 1.59143C19.3195 6.95708 21.5649 22.3234 19.375 27.3883Z" fill="url(#paint0_linear_149_2767)"/>
<path d="M36.074 70.4374C23.0251 39.8845 45.2748 23.1783 56.5745 21.7842C47.7254 32.7724 42.6323 41.3532 44.2551 49.9888C45.7834 41.141 51.8951 30.8441 61.6034 26.642C66.1222 51.1787 45.5912 68.9097 36.074 70.4374Z" fill="url(#paint1_linear_149_2767)"/>
<defs>
<linearGradient id="paint0_linear_149_2767" x1="18.2218" y1="-22.3818" x2="58.4293" y2="35.3676" gradientUnits="userSpaceOnUse">
<stop stop-color="#2F3293"/>
<stop offset="1" stop-color="#FB3F0F"/>
</linearGradient>
<linearGradient id="paint1_linear_149_2767" x1="66.2966" y1="18.5141" x2="69.9378" y2="80.7535" gradientUnits="userSpaceOnUse">
<stop stop-color="#2F3293"/>
<stop offset="1" stop-color="#FB3F0F"/>
</linearGradient>
</defs>
</svg>
