<svg width="146" height="72" viewBox="0 0 146 72" fill="none" xmlns="http://www.w3.org/2000/svg">
<path d="M0.707882 59.1103C8.58468 67.17 20.1071 72.3176 31.5444 70.9854C44.192 69.5101 53.6138 59.8164 60.8547 50.1605C60.9607 50.0208 61.0637 49.88 61.1667 49.7393C62.6097 51.4257 64.2553 52.9146 66.0789 54.1009C70.9116 57.2405 76.5066 57.285 81.7397 55.1078C86.8524 52.9803 91.2715 49.1842 94.9575 45.1204C98.3723 41.3529 101.24 37.173 103.41 32.5906C106.86 33.5729 110.514 33.7207 114.126 33.0815C125.557 31.0593 133.622 21.5213 139.574 12.1823C139.084 14.232 138.575 16.2766 138.024 18.3072C137.49 20.2718 140.496 21.292 141.031 19.3164C142.546 13.7324 143.745 8.05261 145.073 2.42114C145.103 2.29422 145.118 2.17226 145.12 2.05627C145.459 0.617171 143.264 -0.575079 142.202 0.888268C139.472 4.64845 136.037 7.93494 132.093 10.4163C128.716 12.542 124.18 15.1168 120.033 14.1558C118.057 13.6981 117.02 16.6974 119.013 17.1592C123.999 18.3152 128.975 16.0364 133.157 13.4647C134.329 12.7445 135.46 11.9653 136.547 11.138C132.777 17.0505 128.344 22.5965 122.512 26.3442C117.142 29.796 110.611 31.1171 104.696 29.6228C106.613 24.7647 107.823 19.446 107.825 14.2493C107.825 9.60952 106.518 3.82167 102.259 1.2185C97.3475 -1.78223 91.7318 1.265 89.2403 5.90671C86.8562 10.3457 87.0611 15.6369 89.0279 20.1754C90.9265 24.5608 94.4722 28.2801 98.6277 30.6081C99.2132 30.9365 99.8089 31.2349 100.413 31.5044C97.4114 37.7747 92.9886 43.3677 87.592 47.7824C84.0527 50.6767 79.6757 53.3549 74.9785 53.5265C70.0557 53.7076 66.0614 50.6691 63.1096 47.0221C65.8854 42.9801 68.3039 38.6812 69.9564 34.0634C71.6832 29.2369 73.8861 21.2327 68.3627 17.9465C63.5436 15.082 57.8912 19.172 55.8891 23.5789C53.5563 28.718 54.042 35.0968 55.8188 40.2978C56.6229 42.6497 57.7609 44.9783 59.1915 47.1196C53.5753 55.0686 46.5999 62.7133 37.4166 66.2778C27.8346 69.9974 16.7886 67.3538 8.58335 61.6633C6.59743 60.2855 4.77187 58.7212 3.08348 56.9942C1.66419 55.5428 -0.72134 57.6439 0.709892 59.1093L0.707882 59.1103ZM96.6649 25.3296C93.628 22.5874 91.3606 18.9531 90.7804 14.8599C90.2022 10.7708 91.6375 5.72952 95.5938 3.74322C99.6145 1.72507 102.796 5.23858 103.883 8.80901C105.267 13.3591 104.612 18.4132 103.489 22.9583C103.014 24.876 102.409 26.7564 101.684 28.5886C99.9006 27.8013 98.2087 26.7243 96.6659 25.3316L96.6649 25.3296ZM57.5232 32.0094C57.4984 27.6936 58.5544 22.3715 63.0719 20.5835C64.9239 19.851 66.9215 20.1909 67.9821 21.9843C69.2801 24.1813 68.6284 27.2066 68.0316 29.524C66.6651 34.8254 64.1703 39.7131 61.1512 44.2595C58.902 40.5913 57.5471 36.3033 57.5232 32.0094Z" fill="white"/>
</svg>
