<svg width="53" height="38" viewBox="0 0 53 38" fill="none" xmlns="http://www.w3.org/2000/svg">
<path fill-rule="evenodd" clip-rule="evenodd" d="M45.7824 0.132833C47.8652 -0.0664421 50.1271 -0.282867 51.6672 1.43296V1.43073C53.0564 2.97696 52.9603 5.1923 52.8761 7.13563C52.8741 7.18119 52.8722 7.22659 52.8702 7.27183C52.8101 8.65255 52.7506 10.0327 52.6911 11.4126C52.6289 12.8523 52.5668 14.2917 52.5042 15.7311C52.3859 18.4764 52.267 21.2217 52.1482 23.9671C52.0293 26.7124 51.9105 29.4578 51.7922 32.2031C51.7207 33.8592 49.6026 34.1673 48.8727 33.1205C48.8906 33.2097 48.8995 33.299 48.8995 33.3861C48.8884 34.3213 48.1697 34.8547 47.317 34.9685C41.3108 35.7631 35.2844 36.4059 29.2446 36.8814C23.9325 37.301 18.6092 37.5934 13.2837 37.763C12.7622 37.7795 12.2399 37.7982 11.717 37.8169C9.69554 37.8892 7.66659 37.9617 5.65032 37.9103C3.53886 37.8567 1.45419 37.1983 0.577019 35.1002C-0.112582 33.4541 -0.0268617 31.4341 0.0527021 29.5591C0.0769184 28.9884 0.100564 28.4312 0.101606 27.9021L0.114998 19.8982L0.141782 3.44398C0.144014 2.64046 0.635051 2.15612 1.23099 1.98649C1.27117 1.23431 1.77336 0.544628 2.74651 0.61382C8.89117 1.04459 15.047 1.27002 21.2073 1.27226C26.6332 1.27449 32.0592 1.10932 37.474 0.776755C40.1077 0.616052 42.7392 0.412941 45.3685 0.171887C45.5055 0.15933 45.6436 0.14612 45.7824 0.132833ZM49.5457 10.9479C49.602 9.64944 49.6584 8.35099 49.7142 7.0531L49.7164 7.05533C49.723 6.90597 49.7322 6.74999 49.7416 6.58996C49.8316 5.0641 49.9434 3.17031 48 3.13596C46.4932 3.10838 44.9571 3.28285 43.4316 3.45611C42.6116 3.54924 41.7947 3.64202 40.9871 3.70289C38.427 3.89261 35.8669 4.04885 33.3024 4.16491C23.3053 4.62023 13.2882 4.49524 3.30451 3.81449L3.27772 20.7887C3.27549 23.3086 3.27103 25.8286 3.26656 28.3485C3.26584 28.7645 3.26305 29.1807 3.26026 29.597C3.25436 30.4762 3.24846 31.3558 3.2621 32.2344C3.26305 32.291 3.26362 32.3498 3.2642 32.4102C3.27037 33.0543 3.27832 33.8848 3.78438 34.3235C4.32071 34.7877 5.25409 34.7679 5.9785 34.7525C6.08314 34.7503 6.18342 34.7481 6.27751 34.7476C7.34095 34.7435 8.40255 34.721 9.46397 34.6985C9.56989 34.6962 9.67581 34.694 9.78173 34.6918C12.2637 34.6382 14.7434 34.5579 17.2232 34.4507C27.2872 34.0133 37.3289 33.1249 47.317 31.8036C47.8616 31.7322 48.3616 32.0893 48.6473 32.558C48.6272 32.4464 48.6227 32.3281 48.6272 32.2031L49.3772 14.8427C49.433 13.5448 49.4893 12.2464 49.5457 10.9479ZM30.9834 17.4118C34.1082 12.2291 38.0811 7.52853 43.2794 4.33456L43.2816 4.33232C45.0226 3.2632 46.6095 5.99962 44.8775 7.06427C41.717 9.00387 39.0096 11.5885 36.7486 14.5213C34.742 17.1238 33.0591 19.9763 31.5525 22.8935C30.7914 24.3689 30.075 25.8665 29.3897 27.3776C29.3164 27.5391 29.2441 27.705 29.171 27.8728C28.6096 29.1608 28 30.5597 26.5149 30.9488C24.832 31.3907 23.3143 30.2836 22.3121 29.0382C21.454 27.9717 20.6738 26.8316 19.8962 25.6953C19.5493 25.1883 19.2029 24.6821 18.8503 24.1836C17.6767 22.5231 16.5031 20.8632 15.3294 19.2033C14.1572 17.5453 12.985 15.8874 11.8128 14.2289C10.6344 12.5617 13.3797 10.9836 14.5448 12.6331C15.7803 14.3809 17.0158 16.1292 18.2513 17.8776C19.4866 19.6256 20.7219 21.3737 21.9572 23.1212C22.2534 23.54 22.5419 23.98 22.833 24.4239C23.5005 25.4418 24.1812 26.4798 24.9972 27.3285C25.0475 27.3806 25.0937 27.4294 25.1363 27.4744C25.5629 27.9248 25.6361 28.0021 25.9547 27.3508C26.1383 26.9769 26.3055 26.5932 26.4728 26.2095C26.582 25.9588 26.6913 25.7082 26.8051 25.4603C28.0617 22.7105 29.421 20.0031 30.9834 17.4118Z" fill="white"/>
</svg>
